<?xml version="1.0" standalone="no"?>
<!DOCTYPE svg PUBLIC "-//W3C//DTD SVG 20010904//EN"
 "http://www.w3.org/TR/2001/REC-SVG-20010904/DTD/svg10.dtd">
<svg version="1.0" xmlns="http://www.w3.org/2000/svg"
 width="700.000000pt" height="700.000000pt" viewBox="0 0 700.000000 700.000000"
 preserveAspectRatio="xMidYMid meet">
<metadata>
Created by potrace 1.14, written by Peter Selinger 2001-2017
</metadata>
<g transform="translate(0.000000,700.000000) scale(0.100000,-0.100000)"
fill="#000000" stroke="none">
<path d="M4037 6986 c-63 -17 -146 -76 -184 -129 -46 -65 -62 -119 -69 -226
l-7 -98 -176 -6 c-443 -16 -869 -120 -1268 -312 -330 -159 -564 -319 -856
-587 l-84 -78 -197 0 -198 0 -29 -29 c-38 -39 -40 -97 -5 -138 l24 -28 765 -5
c754 -5 766 -5 793 -26 15 -11 37 -33 48 -48 21 -27 21 -34 21 -916 0 -882 0
-889 -21 -916 -47 -63 -60 -68 -237 -74 -177 -6 -201 -13 -265 -74 -66 -61
-76 -94 -82 -266 l-5 -156 -260 188 c-143 104 -298 214 -344 246 l-83 57 -507
5 c-562 6 -538 3 -581 73 -19 31 -20 57 -20 924 l0 891 27 33 c43 50 76 59
228 59 l137 0 29 29 c41 41 41 101 0 142 l-29 29 -161 0 c-140 0 -168 -3 -218
-22 -73 -27 -154 -102 -190 -177 l-28 -56 0 -935 0 -935 29 -57 c35 -70 94
-128 166 -164 47 -24 70 -29 161 -32 l105 -4 13 -156 c60 -772 376 -1469 915
-2021 545 -557 1197 -876 1986 -973 158 -19 593 -16 755 6 474 64 888 208
1281 443 226 136 466 325 632 496 66 69 72 78 72 117 0 58 -41 100 -100 100
-38 0 -48 -7 -146 -100 -129 -123 -242 -217 -359 -302 -105 -75 -304 -198
-321 -198 -13 0 -301 354 -398 490 -56 77 -58 83 -40 94 13 8 170 13 514 16
l495 5 55 27 c110 54 180 150 200 273 7 44 10 363 10 940 l-1 873 43 60 c91
122 166 299 199 467 9 44 14 130 13 230 -1 140 -4 173 -27 260 -15 55 -49 144
-75 197 l-48 98 61 0 c80 0 170 17 217 41 20 10 39 19 42 19 10 0 140 -311
180 -432 119 -357 163 -662 153 -1056 -14 -575 -169 -1080 -481 -1572 -47 -74
-86 -145 -86 -158 0 -62 61 -110 123 -98 40 7 57 25 125 128 193 289 371 703
446 1038 170 763 84 1509 -254 2195 l-70 141 10 59 c12 75 13 1696 1 1780 -18
122 -91 223 -199 273 l-57 27 -1130 2 c-899 1 -1140 -1 -1178 -11z m-257 -911
c0 -285 5 -311 61 -340 17 -9 45 -15 60 -13 l29 5 0 -142 0 -142 -29 5 c-42 6
-90 -23 -108 -66 -12 -29 -14 -77 -11 -267 l3 -230 33 -67 c21 -42 51 -83 83
-112 l50 -45 -11 -68 c-36 -228 -160 -402 -361 -503 -203 -103 -470 -79 -684
60 l-75 50 0 462 0 463 25 38 c37 54 61 113 80 202 22 99 16 264 -15 380 -25
96 -113 280 -169 352 l-40 53 108 34 c275 87 590 137 909 145 l62 1 0 -255z
m-1183 -134 c81 -124 133 -286 133 -420 l0 -73 -32 24 c-18 14 -53 36 -78 49
-45 24 -49 24 -440 30 -499 9 -462 7 -455 20 15 23 217 177 340 258 71 47 197
121 280 163 l150 78 33 -38 c19 -20 50 -61 69 -91z m1777 -1353 c13 -18 16
-54 16 -187 0 -147 2 -169 21 -209 41 -84 145 -123 230 -85 25 11 136 86 248
167 112 81 206 145 209 142 11 -12 -31 -172 -63 -243 -42 -90 -74 -137 -164
-238 -103 -114 -147 -201 -166 -322 l-7 -43 -587 0 c-653 0 -662 -1 -757 -65
-89 -61 -141 -153 -151 -267 -5 -58 -9 -67 -28 -72 -43 -11 -171 -103 -226
-164 -31 -33 -73 -87 -92 -119 -44 -72 -127 -311 -127 -365 0 -56 43 -98 98
-98 61 0 92 37 126 151 52 174 113 278 199 340 l42 30 5 -748 5 -748 27 -57
c34 -73 104 -142 176 -176 52 -24 72 -27 214 -32 109 -3 161 -9 170 -18 9 -9
14 -66 18 -200 3 -115 9 -195 17 -207 18 -31 65 -73 96 -84 40 -16 113 -13
147 4 15 8 135 92 265 185 130 94 238 170 239 168 2 -2 18 -25 36 -53 44 -67
141 -191 272 -352 60 -72 108 -135 108 -141 0 -24 -368 -153 -565 -197 -263
-59 -366 -69 -685 -69 -316 -1 -407 8 -650 60 -455 98 -903 312 -1275 609
-132 105 -360 334 -464 465 -74 93 -210 290 -269 390 l-21 35 57 46 c204 163
357 225 467 189 25 -8 68 -44 130 -106 70 -71 108 -101 156 -124 271 -125 562
-76 770 131 98 99 123 164 84 222 -20 30 -72 51 -108 42 -14 -4 -54 -39 -89
-78 -148 -167 -326 -216 -528 -146 -57 20 -75 33 -155 115 -70 73 -105 100
-158 124 -185 87 -415 24 -674 -186 -23 -19 -44 -34 -46 -34 -7 0 -89 198
-127 305 -85 245 -160 634 -160 837 l0 58 279 0 279 0 103 -73 c57 -40 211
-150 341 -244 130 -95 252 -180 270 -189 19 -10 55 -18 85 -18 42 0 61 6 95
29 76 54 83 75 86 282 4 228 -8 213 184 213 177 0 226 16 314 104 98 98 104
123 104 427 l0 249 68 -34 c290 -146 609 -132 872 39 209 135 350 357 386 608
l6 47 104 0 c95 0 104 -2 118 -22z m1563 -62 c95 -142 143 -303 143 -481 0
-193 -49 -364 -152 -533 l-20 -32 -28 20 c-16 12 -51 31 -77 43 -47 21 -59 22
-472 25 l-423 3 7 37 c11 59 43 112 118 196 184 204 263 394 282 680 6 82 11
109 24 116 9 6 125 9 281 7 l264 -2 53 -79z m-203 -1180 c18 -7 44 -29 57 -47
l24 -34 0 -890 c0 -834 -1 -893 -18 -918 -42 -64 -22 -62 -572 -67 -490 -5
-501 -5 -540 -27 -22 -12 -179 -123 -350 -246 l-310 -224 -6 141 c-7 169 -26
224 -97 286 -63 56 -118 70 -276 70 -147 0 -178 11 -216 72 -20 32 -20 49 -18
920 3 879 3 887 24 915 11 15 36 36 55 45 32 17 106 18 1122 18 905 0 1093 -2
1121 -14z"/>
<path d="M3992 2989 c-74 -22 -92 -118 -32 -171 l30 -28 178 0 c165 0 181 -2
222 -22 64 -33 85 -67 85 -138 0 -63 -16 -95 -69 -134 -25 -19 -45 -21 -243
-26 l-215 -5 -29 -33 c-39 -44 -39 -90 0 -134 l29 -33 215 -5 c198 -5 218 -7
243 -26 53 -39 69 -71 69 -134 0 -71 -21 -104 -86 -138 -40 -21 -52 -23 -138
-17 -153 11 -257 49 -344 124 -42 37 -70 45 -111 31 -57 -18 -85 -80 -61 -136
16 -40 110 -115 191 -154 100 -47 167 -61 324 -67 132 -5 150 -3 202 17 80 30
159 104 200 188 30 60 33 75 32 152 0 56 -6 98 -17 123 l-16 37 205 0 204 0 0
-231 0 -231 29 -29 c41 -41 101 -41 142 0 l29 29 0 496 0 496 91 0 c87 0 92 1
120 29 53 53 34 137 -37 167 -41 17 -477 20 -536 4 -80 -23 -105 -112 -47
-169 30 -30 33 -31 120 -31 l89 0 0 -160 0 -160 -204 0 -205 0 16 38 c11 24
17 66 17 122 1 77 -2 92 -32 152 -41 84 -120 158 -200 189 -50 19 -80 22 -242
25 -107 2 -199 -1 -218 -7z"/>
<path d="M1353 5065 c-17 -7 -39 -25 -48 -39 -21 -31 -485 -1261 -485 -1284 0
-33 38 -80 74 -92 31 -10 42 -9 73 7 40 19 47 33 118 221 l27 72 298 0 298 0
37 -97 c67 -175 71 -182 110 -199 30 -12 43 -13 72 -3 36 11 73 59 73 92 0 23
-467 1252 -487 1284 -17 25 -72 53 -105 53 -12 -1 -37 -7 -55 -15z m167 -620
c57 -148 105 -276 107 -282 4 -10 -43 -13 -217 -13 -174 0 -221 3 -217 13 150
405 213 565 218 559 4 -4 53 -128 109 -277z"/>
</g>
</svg>
